<svg width="267" height="238" viewBox="0 0 267 238" fill="none" 
xmlns="http://www.w3.org/2000/svg">
<path d="M202.167 72.7418C197.287 69.9169 191.013 69.9169 185.436 72.7418L146.397 96.0475L119.906 110.878L81.564 134.184C76.6841 137.009 70.4099 137.009 64.8329 134.184L34.8564 115.822C29.9765 112.997 26.4909 107.347 26.4909 100.991V65.6795C26.4909 60.0297 29.2794 54.3798 34.8564 50.8487L64.8329 33.1929C69.7128 30.368 75.9869 30.368 81.564 33.1929L111.54 51.5549C116.42 54.3798 119.906 60.0297 119.906 66.3858V89.6914L146.397 74.1543V50.1424C146.397 44.4926 143.608 38.8427 138.031 35.3116L82.2611 2.11869C77.3812 -0.706231 71.107 -0.706231 65.53 2.11869L8.36554 36.0178C2.78851 38.8427 0 44.4926 0 50.1424V116.528C0 122.178 2.78851 127.828 8.36554 131.359L64.8329 164.552C69.7128 167.377 75.9869 167.377 81.564 164.552L119.906 141.953L146.397 126.415L184.739 103.816C189.619 100.991 195.893 100.991 201.47 103.816L231.446 121.472C236.326 124.297 239.812 129.947 239.812 136.303V171.614C239.812 177.264 237.024 182.914 231.446 186.445L202.167 204.101C197.287 206.926 191.013 206.926 185.436 204.101L155.46 186.445C150.58 183.62 147.094 177.97 147.094 171.614V149.015L120.603 164.552V187.858C120.603 193.507 123.392 199.157 128.969 202.688L185.436 235.881C190.316 238.706 196.59 238.706 202.167 235.881L258.634 202.688C263.514 199.864 267 194.214 267 187.858V120.766C267 115.116 264.211 109.466 258.634 105.935L202.167 72.7418Z" fill="#8247E5"/>
</svg>
